<?xml version="1.0" encoding="UTF-8" standalone="no"?><!DOCTYPE svg PUBLIC "-//W3C//DTD SVG 1.1//EN" "http://www.w3.org/Graphics/SVG/1.1/DTD/svg11.dtd"><svg width="100%" height="100%" viewBox="0 0 146 146" version="1.1" xmlns="http://www.w3.org/2000/svg" xmlns:xlink="http://www.w3.org/1999/xlink" xml:space="preserve" xmlns:serif="http://www.serif.com/" style="fill-rule:evenodd;clip-rule:evenodd;stroke-linejoin:round;stroke-miterlimit:1.5;"><rect x="0" y="1" width="144.85" height="144.728" style="fill:#3b240c;"/><g><path d="M78.44,86.284l-5.774,12.945c-0.995,2.181 -1.797,3.649 -2.406,4.403c-0.61,0.753 -1.283,1.13 -2.021,1.13c-0.706,0 -1.332,-0.304 -1.877,-0.914c-0.353,-0.385 -1.163,-1.796 -2.43,-4.234c-1.267,-2.439 -2.318,-4.604 -3.152,-6.497l-6.352,-14.291c-0.866,-1.989 -1.78,-2.984 -2.742,-2.984c-1.027,0 -1.588,0.85 -1.685,2.551c-0.224,3.785 -0.336,7.282 -0.336,10.49c-0,3.336 0.16,5.598 0.481,6.785c0.224,0.705 0.521,1.219 0.89,1.54c0.369,0.32 1.371,0.898 3.007,1.732c1.059,0.545 1.588,1.492 1.588,2.839c0,3.593 -4.603,5.389 -13.81,5.389c-7.763,0 -11.645,-1.748 -11.645,-5.245c0,-0.898 0.201,-1.548 0.602,-1.949c0.401,-0.401 1.435,-1.002 3.103,-1.804c1.059,-0.481 1.773,-1.139 2.142,-1.973c0.369,-0.834 0.681,-2.454 0.938,-4.86c0.289,-2.566 0.561,-6.777 0.818,-12.631c0.257,-5.855 0.385,-10.868 0.385,-15.038c-0,-5.229 -0.401,-8.774 -1.203,-10.634c-0.289,-0.642 -0.618,-1.123 -0.987,-1.444c-0.368,-0.321 -1.066,-0.738 -2.093,-1.251c-2.277,-1.091 -3.416,-2.502 -3.416,-4.235c-0,-1.122 0.425,-2.149 1.275,-3.079c0.85,-0.931 1.981,-1.588 3.392,-1.973c1.412,-0.417 3.297,-0.778 5.654,-1.083c2.358,-0.305 4.355,-0.457 5.991,-0.457c4.107,-0 7.01,0.337 8.71,1.01c0.834,0.321 1.492,0.754 1.973,1.3c0.481,0.545 1.171,1.668 2.069,3.368l10.009,18.43c1.091,2.021 1.845,3.256 2.262,3.705c0.417,0.449 0.994,0.674 1.732,0.674c0.642,-0 1.211,-0.241 1.708,-0.722c0.497,-0.481 1.083,-1.379 1.757,-2.695l6.784,-13.233c0.835,-1.7 1.38,-2.807 1.637,-3.32c1.571,-3.208 3.127,-5.341 4.667,-6.4c1.957,-1.379 5.518,-2.069 10.683,-2.069c9.078,0 13.618,2.069 13.618,6.208c-0,0.93 -0.177,1.676 -0.53,2.237c-0.353,0.561 -1.074,1.243 -2.165,2.045c-1.476,1.123 -2.406,2.743 -2.791,4.86c-0.738,4.427 -1.107,9.817 -1.107,16.169c0,8.18 0.385,15.35 1.155,21.509c0.193,1.508 0.489,2.534 0.89,3.08c0.401,0.545 1.436,1.363 3.104,2.454c1.155,0.77 1.732,1.796 1.732,3.08c0,2.245 -1.491,3.833 -4.475,4.763c-1.54,0.514 -3.16,0.85 -4.86,1.011c-1.7,0.16 -4.315,0.24 -7.843,0.24c-5.422,0 -9.464,-0.384 -12.127,-1.154c-2.951,-0.867 -4.427,-2.342 -4.427,-4.427c0,-0.77 0.193,-1.404 0.578,-1.901c0.385,-0.497 1.379,-1.404 2.983,-2.719c0.834,-0.674 1.404,-1.973 1.709,-3.898c0.304,-1.924 0.457,-5.197 0.457,-9.816c-0,-2.566 -0.121,-4.251 -0.361,-5.053c-0.241,-0.802 -0.746,-1.203 -1.516,-1.203c-0.898,0 -1.764,0.618 -2.598,1.853c-0.835,1.235 -2.086,3.697 -3.754,7.386Z" style="fill:#efefef;fill-rule:nonzero;"/></g><path d="M0,1l0,1.203l17.489,17.49l1.204,-1.204l-17.49,-17.489l-1.203,0Z" style="fill:#efefef;"/><path d="M144.85,145.728l0,-1.203l-17.489,-17.489l-1.203,1.203l17.489,17.489l1.203,0Z" style="fill:#efefef;"/><path d="M0,145.728l1.203,0l17.49,-17.489l-1.204,-1.203l-17.489,17.489l0,1.203Z" style="fill:#efefef;"/><path d="M144.85,1l-1.203,0l-17.489,17.489l1.203,1.204l17.489,-17.49l0,-1.203Z" style="fill:#efefef;"/><path d="M18.693,19.693l107.465,-0l-0,107.343l-107.465,-0l-0,-107.343Zm2,2l103.465,-0c-0,-0 -0,103.343 -0,103.343c-0,-0 -88.923,-0 -103.465,-0c-0,-0 -0,-103.343 -0,-103.343l-0,-0Z" style="fill:#efefef;"/><path d="M126.158,19.693l18.692,-18.693" style="fill:none;stroke:#efefef;stroke-width:2px;"/></svg>